<?xml version="1.0" encoding="UTF-8"?>
<svg width="32px" height="32px" viewBox="0 0 32 32" version="1.1" xmlns="http://www.w3.org/2000/svg" xmlns:xlink="http://www.w3.org/1999/xlink">
    <!-- Generator: Sketch 49.3 (51167) - http://www.bohemiancoding.com/sketch -->
    <title>noticebar/_resource/left+icon</title>
    <desc>Created with Sketch.</desc>
    <defs></defs>
    <g id="noticebar/_resource/left+icon" stroke="none" stroke-width="1" fill="none" fill-rule="evenodd">
        <path d="M3.05240832,22.0650781 L3.05240832,10.2289853 C3.05240832,9.97139067 3.2569834,10.0431648 3.51190864,10.0436987 L7.52471059,10.0436987 C7.62272145,10.0436987 7.76601218,10.0520197 7.85882049,10.0407174 C7.96512017,10.0278577 8.0298435,9.982337 8.11528886,9.9595544 C8.24738088,9.92462406 8.23499174,9.94268994 8.34605308,9.88324161 C8.57082114,9.7631435 8.75802497,9.64669418 8.95541347,9.47827205 C9.07886395,9.37294704 9.18617769,9.26584214 9.31086267,9.15704635 L10.4833777,8.11483155 C10.4880071,8.11051532 10.4944001,8.10406322 10.4990295,8.09970249 L10.7339381,7.90400354 C10.8064652,7.83080555 10.8304058,7.81118226 10.9101196,7.74198903 C10.9170416,7.73607089 10.935956,7.71871696 10.9425253,7.71262083 L10.9893483,7.66727813 C11.0231208,7.63630804 11.0494863,7.61770818 11.0909745,7.58433524 L12.3266697,6.48236063 C12.4012691,6.41543675 12.4338071,6.40377847 12.5104346,6.32782165 L13.2148518,5.70953224 C13.2792665,5.6452337 13.3237087,5.61310668 13.3931055,5.54965359 L15.166648,3.9701789 C15.2054026,3.93435861 15.2140442,3.92670508 15.2464058,3.89613546 L16.8062467,2.56504447 L16.8062467,29.4509111 C16.7044442,29.4234563 16.6112832,29.3325484 16.530864,29.2652685 L16.4507535,29.191581 C16.4463004,29.1872648 16.4397311,29.1806347 16.4351017,29.176452 C16.4075458,29.1505546 16.3851483,29.1314652 16.3539771,29.1038324 L15.8540027,28.6811085 C15.8493733,28.6767478 15.8431566,28.6701177 15.8385273,28.6659794 L15.6237675,28.4806928 C15.619094,28.4763321 15.6127451,28.46988 15.6080717,28.4655638 L15.0066915,27.9599414 C14.8838582,27.8443375 14.773811,27.754987 14.6396467,27.650196 L14.3432774,27.3930908 C14.3096812,27.3616313 14.3303592,27.3788517 14.2960576,27.3479261 L13.6788052,26.8271747 C13.6380224,26.7917104 13.623517,26.7765813 13.5822052,26.7392036 L9.49273168,23.2317517 C9.42161539,23.1719474 9.37611507,23.1410218 9.30605692,23.0800161 L8.94712465,22.7624391 C8.69841602,22.5627354 8.43387928,22.3525749 8.11423072,22.2736367 C8.04981602,22.2578402 7.92222113,22.2413317 7.85538151,22.2258467 C7.28517256,22.0940903 6.19775019,22.1577214 5.59478278,22.1577214 L3.29556168,22.1596348 C3.16554187,22.1617261 3.05240832,22.1902044 3.05240832,22.0650781 L3.05240832,22.0650781 Z M1,9.82730855 L1.06578147,9.46087363 C1.16189649,9.20465841 1.16242556,9.16158507 1.30051374,8.92517113 C1.47638658,8.62410268 1.76468754,8.38061368 2.06952205,8.21757572 C2.1308064,8.18469225 2.11206838,8.18438077 2.18715272,8.15082984 C3.01449139,7.78199206 4.56123772,7.94222669 5.59495914,7.94222669 C6.13606904,7.94222669 6.67753167,7.93982384 7.21850931,7.94240468 C7.49010036,7.9436506 7.50698662,7.96273992 7.69590995,7.80597608 L8.22189717,7.34760982 C8.37224222,7.20561907 8.51381347,7.09366397 8.66107225,6.95616744 L10.4172435,5.3904424 C10.4218729,5.38608167 10.4284422,5.37980756 10.433248,5.37549132 L10.7914748,5.05720243 C10.878287,4.97692938 10.9297835,4.91886045 11.0167279,4.85175859 L11.8825125,4.08729569 C11.9331713,4.03986161 11.9548633,4.02735788 11.9987764,3.98824479 L12.2236768,3.78244497 C12.2283502,3.77826223 12.2346991,3.77167663 12.2393726,3.7673159 L15.084333,1.26034035 C15.1144902,1.23270755 15.1203541,1.22750138 15.1494531,1.20244942 L15.6378761,0.768111678 C15.6950602,0.711600159 15.6816129,0.730378002 15.7384442,0.684145351 C15.8211119,0.617043485 15.8624678,0.55933054 15.9480455,0.493830576 C16.0195145,0.439232439 16.0935848,0.378226698 16.1793388,0.325363955 C16.1850263,0.321893169 16.1929624,0.317576934 16.1988263,0.314106148 L16.3782704,0.216924136 C16.4142474,0.202685013 16.3963471,0.214832764 16.4459477,0.192762124 C16.5384474,0.151379674 16.4986346,0.148086877 16.5835509,0.115069911 C16.6644991,0.0837883379 16.6507432,0.10274417 16.7357918,0.0832543708 C16.8463682,0.0577129444 16.8932352,0 17.0514723,0 C17.4112864,0 17.6985292,0.000177989034 17.9992193,0.187199967 L18.5744544,0.719431677 C18.711749,0.92941424 18.8588314,1.20022456 18.8588314,1.5452563 L18.8588314,30.4708772 C18.8588314,30.8456331 18.6681445,31.2061499 18.4073995,31.4680608 C18.2036621,31.6726592 18.0226749,31.8167413 17.7483062,31.9154807 C17.293788,32.0790526 16.8923535,31.984318 16.4602327,31.8089543 C16.0408979,31.6387523 15.7000423,31.2930531 15.3686659,30.994254 C15.0554103,30.7119634 14.7085586,30.466205 14.3994033,30.1795537 L14.1221247,29.9339733 C13.7969649,29.6320594 13.4232186,29.3827858 13.1078908,29.0721949 L12.3427183,28.4224459 C11.8217132,28.0188558 11.3357151,27.5620469 10.8357406,27.130646 L9.95844862,26.3776634 C9.95359878,26.3734807 9.94672082,26.3677405 9.94187098,26.3636023 L9.03358408,25.5801835 C8.98191123,25.5295902 8.97071251,25.5262974 8.91784925,25.4805987 L8.82296874,25.3910702 C8.73496618,25.312844 8.69171443,25.2933987 8.60454957,25.2094324 C8.52827481,25.1361009 8.46990037,25.0968098 8.38895212,25.0251692 L7.9625189,24.6520152 C7.57863199,24.3400004 7.67368886,24.2575915 7.15718087,24.2591934 L2.77495337,24.2609288 C2.53709074,24.2598609 2.61892078,24.2289353 2.4553048,24.1816347 C2.37140256,24.1574727 2.36024793,24.1743371 2.2784179,24.1437675 C2.04712461,24.0577098 1.82460512,23.8976532 1.64635144,23.7307885 L1.16515911,23.0727185 C1.08006645,22.9016711 1,22.6687279 1,22.4667548 L1,9.82730855 Z M20.4210532,4.666472 C20.4210532,4.463609 20.5850219,4.17491079 20.7190097,4.03986161 C20.8030442,3.95522782 20.8726174,3.88692453 20.9740672,3.83352782 C21.2647931,3.68076873 21.2875433,3.70840153 21.6462551,3.70840153 L22.2220193,3.83824453 C22.3055247,3.8646759 22.378581,3.9004517 22.4817062,3.91629272 L23.0147477,4.05846146 C23.1150072,4.10086735 23.1650928,4.10941082 23.2655286,4.14536461 C23.3512826,4.17615671 23.409657,4.20169814 23.5148985,4.23369167 C23.6203164,4.26546271 23.6535599,4.28944673 23.7603005,4.32597898 L24.4905541,4.64004063 C24.8952954,4.82203442 25.2662641,5.04607812 25.6556621,5.25712861 C25.94242,5.41233505 26.2079708,5.63081659 26.4890411,5.80689224 L27.2645746,6.41525876 L29.5143273,8.90465789 C29.5327567,8.9305553 29.5351817,8.93558349 29.5515388,8.9597455 C29.574289,8.99329643 29.592013,9.01728046 29.6133523,9.05207731 L30.0134641,9.69902295 C30.0494411,9.75620193 30.0452967,9.75931674 30.0766443,9.82067846 L30.4820909,10.5861648 C30.5775005,10.745732 30.6241472,10.9164235 30.6942494,11.0827542 L30.8535446,11.4476317 C31.0300788,11.8595428 31.1291037,12.3320147 31.2333312,12.578663 C31.2777293,12.6838101 31.2741139,12.7248365 31.2994654,12.8518762 L31.4310283,13.398881 C31.4947376,13.5653898 31.5017919,13.7621566 31.5477772,13.9611929 C31.6070334,14.2178976 31.6938456,15.2519693 31.6938456,15.5135687 L31.6938456,16.4714612 C31.6938456,17.1524918 31.6271823,17.2228864 31.5760385,17.7434598 C31.5266143,18.2469908 31.4465037,18.454882 31.370758,18.8958498 L31.2684264,19.3180843 C31.2395037,19.4402738 31.2572718,19.3655184 31.2290104,19.4329763 C31.1842155,19.5402147 31.1876545,19.5878267 31.1504871,19.6935077 L30.9829031,20.2043807 C30.953275,20.3072584 30.9288053,20.3496643 30.8899184,20.4504951 C30.8809242,20.4741231 30.8728558,20.5030018 30.8662865,20.5195103 L30.803459,20.6413438 C30.8003286,20.6477514 30.7963606,20.6555829 30.7934507,20.662391 C30.6417389,21.0293154 30.4963759,21.4236946 30.2938289,21.7652556 L30.0032794,22.3065202 C29.9514302,22.3941353 29.9247561,22.4288877 29.8696443,22.5116081 L28.7808551,24.0399999 C28.7765344,24.0446721 28.7703178,24.0513022 28.7660411,24.0559744 C28.7600008,24.0626045 28.7429382,24.0816939 28.7370743,24.0885019 C28.5247395,24.338443 28.3254551,24.6005319 28.0862698,24.8225287 C28.0607861,24.8461568 28.0640487,24.841974 28.0376832,24.866136 C27.6395114,25.2327044 27.2558008,25.6018982 26.8233273,25.9279741 L24.6004251,27.3011595 C24.261818,27.4692257 23.9008577,27.6355564 23.5450557,27.7506263 L23.2920263,27.8354826 C23.185418,27.8731718 23.1403145,27.8712584 23.0356021,27.9166456 C22.6908225,28.0657559 22.3131081,28.1186186 21.9655509,28.1968448 C21.8436436,28.2242996 21.8219516,28.2766284 21.7075835,28.2766284 C21.241558,28.2766284 21.0655088,28.2993665 20.7036666,27.9296833 C20.6215279,27.845539 20.5548647,27.7631745 20.519064,27.6524209 C20.3740538,27.2027761 20.3967599,27.3307057 20.4987388,26.9333452 C20.6466589,26.3569722 21.1376832,26.2589447 21.5722289,26.1621187 C21.6905209,26.1358653 21.6901682,26.1064971 21.8038308,26.0868738 C21.9342033,26.0640912 21.9667854,26.0731242 22.083887,26.0295169 L23.8765644,25.3347367 C23.9316762,25.3059024 23.9251509,25.3026096 23.9726794,25.2772017 L24.1726251,25.1699633 C24.2256647,25.1376583 24.2268551,25.1426865 24.2742513,25.1179905 L24.6665593,24.8956822 C25.1756602,24.5880282 25.4639612,24.3306115 25.9082947,23.9850458 C25.9702845,23.9367218 26.021781,23.9057962 26.0808609,23.8501746 L27.1602149,22.7448627 C27.4156251,22.4085524 27.718211,22.0729096 27.9386583,21.7070087 L28.2963561,21.1099444 C28.5397299,20.6189172 28.8219906,20.1407497 28.9850775,19.6104313 L29.2088315,18.9090655 C29.2776992,18.6892046 29.3738142,18.4060685 29.396344,18.171212 C29.4194468,17.9297699 29.4769836,17.9308378 29.4888436,17.6464558 C29.4969561,17.4533377 29.5692628,17.3160192 29.5802852,17.1206762 L29.6107951,15.5135687 C29.6107951,15.1800173 29.5913075,14.9209987 29.5283037,14.6387081 C29.4854047,14.4470139 29.5213817,14.2521604 29.467328,14.0821809 L29.0701702,12.5975744 L28.348558,10.9768952 C28.3259842,10.9296391 28.3211785,10.9223416 28.2965324,10.875041 L27.6455516,9.86308435 C27.6414072,9.85823415 27.6353669,9.85129257 27.6312225,9.84639788 L26.9993324,9.06231168 C26.9423248,9.00183991 26.8996462,8.96846696 26.8493401,8.90483588 L26.4594129,8.49461566 C26.4547836,8.49047741 26.4482142,8.48402531 26.4435848,8.47966458 L25.7555248,7.87601477 C25.7503663,7.87201001 25.7429593,7.86662585 25.7379772,7.86262109 C25.732995,7.85861634 25.7258966,7.85305418 25.7209145,7.84909393 C25.6823363,7.81812383 25.7049101,7.83396486 25.6707848,7.80682153 C25.6658027,7.80281678 25.6589248,7.79712113 25.6537663,7.79311638 L25.2528168,7.48701973 C25.2471292,7.48337096 25.2395458,7.47847626 25.2340347,7.47482748 C24.7134264,7.13139764 24.1939644,6.77417365 23.6180679,6.54020707 L22.4910091,6.10115262 C22.4138525,6.07351982 22.4770768,6.08726947 22.3845771,6.05389653 L21.7721746,5.89917956 C21.6655663,5.87710892 21.6176851,5.83626043 21.5157062,5.81801656 C21.3767362,5.79314259 21.3881113,5.81454577 21.260296,5.76657773 C20.9382666,5.64576767 20.7486378,5.52789443 20.5641675,5.23278861 C20.5088794,5.14397209 20.547634,5.23118671 20.5154487,5.12741911 C20.4672148,4.97256865 20.4210532,4.8482878 20.4210532,4.666472 Z M21.2480832,11.6197026 C21.2480832,11.6170773 21.3459177,11.2287942 21.3474608,11.2251454 L21.4144327,11.1074502 C21.4179158,11.10171 21.4223688,11.0938785 21.4258078,11.0880049 L21.5224519,10.9381381 C21.5959931,10.8397547 21.6793222,10.7815523 21.7936902,10.7173872 C22.0360059,10.5814926 22.1894813,10.5997365 22.4734615,10.5997365 C22.8303215,10.5997365 23.7272334,11.2849053 24.0575957,11.5668399 L24.6049222,12.1268824 L25.5240551,13.5793174 C25.6100296,13.7430673 25.6236091,13.8763811 25.6952545,14.0555716 L25.7796417,14.2794373 C25.8056545,14.3799121 25.7913695,14.3282953 25.8172059,14.3962426 C25.8604136,14.510111 25.8578564,14.6708796 25.8876168,14.7887529 C25.9145113,14.8951013 25.95428,14.9102304 25.9644647,15.0510197 C25.9734149,15.1718298 25.9768538,15.2529928 25.9875235,15.3369591 C26.0522909,15.8471202 26.0409158,15.9677522 25.9988986,16.4740866 C25.9873471,16.6138079 25.9775593,16.9228414 25.9472257,17.0401807 L25.4775848,18.5133069 C25.0125733,19.3410004 25.3006979,18.8946484 24.753195,19.6676103 L24.2490762,20.2406905 C24.1053005,20.3991897 23.6494155,20.7772829 23.4558187,20.8928423 C23.3881414,20.9333348 23.319935,20.9745393 23.2448506,21.0201045 C23.1764679,21.0614424 23.1172557,21.1047383 23.0581759,21.1407365 L22.6623848,21.3593961 C22.4865561,21.4231606 22.2984704,21.3989986 22.1059318,21.3859609 C21.9433739,21.3750146 21.9932832,21.3711878 21.8744621,21.3095146 C21.658512,21.1977375 21.5107241,21.0703419 21.3868768,20.8433169 L21.2480832,20.3653273 C21.2480832,20.184179 21.3786321,19.8598385 21.4998781,19.7230539 L22.9975529,18.5454339 C23.0769139,18.4634255 23.1265145,18.3789252 23.2014666,18.2876613 C23.37368,18.0780347 23.4932065,17.8282716 23.6140998,17.5913682 L23.797512,17.0966922 C23.8944647,16.7400022 23.9743989,16.3680496 23.9743989,15.9771412 C23.9743989,15.34617 23.7511739,14.5971922 23.4332449,14.0507214 L23.327342,13.8793179 C23.3221835,13.8718424 23.3063554,13.8515071 23.3009765,13.8442096 L22.7524596,13.1922357 C22.5278679,12.9725083 22.2461362,12.8035522 21.9812468,12.6415822 L21.4833445,12.2476924 C21.3724155,12.0975142 21.3419497,11.9780835 21.295788,11.7879468 C21.2823407,11.7328592 21.2480832,11.6581038 21.2480832,11.6197026 Z" id="Combined-Shape" fill="#F86E21"></path>
    </g>
</svg>