<?xml version="1.0" encoding="UTF-8"?>
<svg width="36px" height="36px" viewBox="0 0 36 36" version="1.1" xmlns="http://www.w3.org/2000/svg" xmlns:xlink="http://www.w3.org/1999/xlink">
    <!-- Generator: Sketch 48.2 (47327) - http://www.bohemiancoding.com/sketch -->
    <title>input/_resource/icon1</title>
    <desc>Created with Sketch.</desc>
    <defs></defs>
    <g id="Symbols" stroke="none" stroke-width="1" fill="none" fill-rule="evenodd">
        <g id="input/_resource/icon1" fill="#CCCCCC">
            <g id="Page-1" transform="translate(2.000000, 6.000000)">
                <g id="Group-7">
                    <path d="M28.4893,12.1792 C27.6293,14.2262 24.1883,20.9062 16.0003,20.9062 C7.8063,20.9062 4.3673,14.2212 3.5083,12.1722 C3.4603,12.0592 3.4603,11.9402 3.5083,11.8272 C3.5083,11.8272 3.5083,11.8272 3.5083,11.8262 C4.3673,9.7782 7.8063,3.0942 16.0003,3.0942 C24.1893,3.0942 27.6293,9.7732 28.4893,11.8212 C28.5383,11.9382 28.5383,12.0622 28.4893,12.1792 M31.0823,10.7322 C30.0533,8.2802 25.9243,0.2812 16.0003,0.2812 C6.0703,0.2812 1.9433,8.2862 0.9143,10.7402 C0.5733,11.5532 0.5733,12.4482 0.9143,13.2602 C1.9433,15.7142 6.0703,23.7192 16.0003,23.7192 C25.9233,23.7192 30.0523,15.7202 31.0823,13.2682 C31.4263,12.4502 31.4263,11.5492 31.0823,10.7322" id="Fill-3"></path>
                    <path d="M16,14.3438 C14.708,14.3438 13.656,13.2928 13.656,11.9998 C13.656,10.7078 14.708,9.6568 16,9.6568 C17.292,9.6568 18.344,10.7078 18.344,11.9998 C18.344,13.2928 17.292,14.3438 16,14.3438 M16,6.8438 C13.157,6.8438 10.844,9.1568 10.844,11.9998 C10.844,14.8438 13.157,17.1568 16,17.1568 C18.843,17.1568 21.156,14.8438 21.156,11.9998 C21.156,9.1568 18.843,6.8438 16,6.8438" id="Fill-5"></path>
                </g>
            </g>
        </g>
    </g>
</svg>