<?xml version="1.0" encoding="UTF-8"?>
<svg width="40px" height="40px" viewBox="0 0 40 40" version="1.1" xmlns="http://www.w3.org/2000/svg" xmlns:xlink="http://www.w3.org/1999/xlink">
    <!-- Generator: Sketch 49.3 (51167) - http://www.bohemiancoding.com/sketch -->
    <title>icon/40/员工服务</title>
    <desc>Created with Sketch.</desc>
    <defs>
        <linearGradient x1="100%" y1="100%" x2="0.82640896%" y2="0.82640896%" id="linearGradient-1">
            <stop stop-color="#FFC526" offset="0%"></stop>
            <stop stop-color="#FFAA00" offset="100%"></stop>
        </linearGradient>
        <linearGradient x1="50%" y1="0%" x2="50%" y2="99.044881%" id="linearGradient-2">
            <stop stop-color="#FFFFFF" stop-opacity="0.95" offset="0%"></stop>
            <stop stop-color="#FFFFFF" stop-opacity="0.8" offset="100%"></stop>
        </linearGradient>
    </defs>
    <g id="icon/40/员工服务" stroke="none" stroke-width="1" fill="none" fill-rule="evenodd">
        <path d="M18,27 L18,23.4862311 C15.3938345,24.3274869 12.4164015,23.7154098 10.3502,21.65 C8.9282,20.228 8.1452,18.337 8.1452,16.326 C8.1452,14.772 8.6122,13.291 9.4802,12.042 C8.5192,10.795 8.0002,9.274 8.0002,7.674 C8.0002,5.757 8.7462,3.954 10.1022,2.598 L10.5972,2.103 C11.9542,0.747 13.7572,0 15.6752,0 C17.2742,0 18.7952,0.52 20.0422,1.48 C21.2912,0.612 22.7722,0.145 24.3252,0.145 C26.3372,0.145 28.2272,0.928 29.6492,2.35 C31.0722,3.772 31.8542,5.663 31.8542,7.674 C31.8542,9.228 31.3872,10.709 30.5192,11.958 C31.4802,13.205 32.0002,14.726 32.0002,16.326 C32.0002,18.243 31.2542,20.046 29.8972,21.402 L29.4022,21.897 C28.0462,23.253 26.2432,24 24.3252,24 C23.5218658,24 22.7386987,23.8689141 22,23.616868 L22,27 L33,27 C33.553,27 34,27.448 34,28 L34,36 C34,38.209 32.209,40 30,40 L10,40 C7.791,40 6,38.209 6,36 L6,28 C6,27.448 6.447,27 7,27 L18,27 Z" id="Combined-Shape" fill="url(#linearGradient-1)"></path>
        <path d="M20,17 C17.243,17 15,14.757 15,12 C15,9.243 17.243,7 20,7 C22.757,7 25,9.243 25,12 C25,14.757 22.757,17 20,17" id="Fill-5" fill="url(#linearGradient-2)"></path>
    </g>
</svg>