<?xml version="1.0" encoding="UTF-8"?>
<svg width="36px" height="36px" viewBox="0 0 36 36" version="1.1" xmlns="http://www.w3.org/2000/svg" xmlns:xlink="http://www.w3.org/1999/xlink">
    <!-- Generator: Sketch 48.2 (47327) - http://www.bohemiancoding.com/sketch -->
    <title>input/_resource/icon1 hide</title>
    <desc>Created with Sketch.</desc>
    <defs></defs>
    <g id="Symbols" stroke="none" stroke-width="1" fill="none" fill-rule="evenodd">
        <g id="input/_resource/icon1-hide" fill="#CCCCCC">
            <g id="Page-1" transform="translate(2.000000, 9.000000)">
                <path d="M31.436,3.0401 C31.768,2.2851 31.425,1.4071 30.671,1.0711 C29.916,0.7341 29.032,1.0761 28.692,1.8271 C28.57,2.0971 25.589,8.4371 16,8.4371 C6.411,8.4371 3.43,2.0971 3.308,1.8271 C2.972,1.0741 2.092,0.7341 1.335,1.0641 C0.576,1.3961 0.231,2.2811 0.564,3.0401 C0.638,3.2091 1.578,5.2651 3.909,7.3001 L2.354,11.5721 C2.071,12.3511 2.472,13.2111 3.25,13.4951 C3.42,13.5571 3.593,13.5861 3.764,13.5861 C4.376,13.5861 4.952,13.2071 5.173,12.5991 L6.45,9.0911 C7.678,9.7921 9.134,10.4001 10.843,10.8231 L10.109,14.9871 C9.965,15.8031 10.51,16.5811 11.326,16.7251 C11.414,16.7401 11.501,16.7481 11.588,16.7481 C12.302,16.7481 12.935,16.2361 13.063,15.5081 L13.799,11.3321 C14.5,11.3971 15.23,11.4371 16,11.4371 C16.769,11.4371 17.499,11.3971 18.201,11.3321 L18.937,15.5081 C19.065,16.2361 19.698,16.7481 20.412,16.7481 C20.498,16.7481 20.586,16.7401 20.674,16.7251 C21.49,16.5811 22.035,15.8031 21.891,14.9871 L21.157,10.8231 C22.866,10.4001 24.322,9.7921 25.55,9.0911 L26.827,12.5991 C27.048,13.2071 27.623,13.5861 28.236,13.5861 C28.407,13.5861 28.58,13.5571 28.749,13.4951 C29.528,13.2111 29.929,12.3511 29.646,11.5721 L28.091,7.3001 C30.422,5.2651 31.362,3.2091 31.436,3.0401" id="Fill-3"></path>
            </g>
        </g>
    </g>
</svg>