<?xml version="1.0" encoding="UTF-8"?>
<svg width="44px" height="44px" viewBox="0 0 44 44" version="1.1" xmlns="http://www.w3.org/2000/svg" xmlns:xlink="http://www.w3.org/1999/xlink">
    <!-- Generator: Sketch 48.2 (47327) - http://www.bohemiancoding.com/sketch -->
    <title>icon/44+#888/我的</title>
    <desc>Created with Sketch.</desc>
    <defs></defs>
    <g id="Symbols" stroke="none" stroke-width="1" fill="none" fill-rule="evenodd">
        <g id="icon/44+#888/我的">
            <g id="Group-11" transform="translate(5.000000, 4.000000)">
                <path d="M32.9617,36 C30.4907,34.282 27.7247,32.968 24.7627,32.112 C30.2437,29.291 33.9997,23.589 33.9997,17 C33.9997,7.611 26.3887,0 17.0007,0 C7.6107,0 0.0007,7.611 0.0007,17 C0.0007,23.589 3.7557,29.291 9.2377,32.112 C6.2757,32.968 3.5087,34.282 1.0387,36" id="Stroke-3" stroke="#888888" stroke-width="4" stroke-linecap="round" stroke-linejoin="round"></path>
                <path d="M13.0002,14 C13.0002,15.104 12.1042,16 11.0002,16 C9.8952,16 9.0002,15.104 9.0002,14 C9.0002,12.896 9.8952,12 11.0002,12 C12.1042,12 13.0002,12.896 13.0002,14" id="Fill-5" fill="#888888"></path>
                <path d="M24.9998,14 C24.9998,15.104 24.1038,16 22.9998,16 C21.8958,16 20.9998,15.104 20.9998,14 C20.9998,12.896 21.8958,12 22.9998,12 C24.1038,12 24.9998,12.896 24.9998,14" id="Fill-7" fill="#888888"></path>
                <path d="M10.0002,22 C10.7042,23.19 12.0002,24 13.5002,24 C15.0002,24 16.2962,23.19 17.0002,22 C17.7042,23.19 19.0002,24 20.5002,24 C22.0002,24 23.2952,23.19 24.0002,22" id="Stroke-9" stroke="#888888" stroke-width="4" stroke-linecap="round" stroke-linejoin="round"></path>
            </g>
        </g>
    </g>
</svg>