<?xml version="1.0" encoding="UTF-8"?>
<svg width="26px" height="26px" viewBox="0 0 26 26" version="1.1" xmlns="http://www.w3.org/2000/svg" xmlns:xlink="http://www.w3.org/1999/xlink">
    <!-- Generator: Sketch 49.3 (51167) - http://www.bohemiancoding.com/sketch -->
    <title>icon/26/computer</title>
    <desc>Created with Sketch.</desc>
    <defs></defs>
    <g id="icon/26/computer" stroke="none" stroke-width="1" fill="none" fill-rule="evenodd">
        <path d="M22,19 C22.5517153,19 23,18.5517153 23,18 L23,4 C23,3.44828475 22.5517153,3 22,3 L4,3 C3.44828475,3 3,3.44828475 3,4 L3,18 C3,18.5517153 3.44828475,19 4,19 L22,19 Z M22,21 L4,21 C2.34371525,21 1,19.6562847 1,18 L1,4 C1,2.34371525 2.34371525,1 4,1 L22,1 C23.6562847,1 25,2.34371525 25,4 L25,18 C25,19.6562847 23.6562847,21 22,21 Z" id="Stroke-3" fill="#BBBBBB" fill-rule="nonzero"></path>
        <path d="M12,20 C12,19.4477153 12.4477153,19 13,19 C13.5522847,19 14,19.4477153 14,20 L14,24 C14,24.5522847 13.5522847,25 13,25 C12.4477153,25 12,24.5522847 12,24 L12,20 Z" id="Stroke-5" fill="#BBBBBB" fill-rule="nonzero"></path>
        <path d="M8,26 C7.44771525,26 7,25.5522847 7,25 C7,24.4477153 7.44771525,24 8,24 L18,24 C18.5522847,24 19,24.4477153 19,25 C19,25.5522847 18.5522847,26 18,26 L8,26 Z" id="Stroke-7" fill="#BBBBBB" fill-rule="nonzero"></path>
        <path d="M3,17 C2.44771525,17 2,16.5522847 2,16 C2,15.4477153 2.44771525,15 3,15 L23,15 C23.5522847,15 24,15.4477153 24,16 C24,16.5522847 23.5522847,17 23,17 L3,17 Z" id="Stroke-9" fill="#BBBBBB" fill-rule="nonzero"></path>
    </g>
</svg>