<?xml version="1.0" encoding="UTF-8"?>
<svg width="40px" height="40px" viewBox="0 0 40 40" version="1.1" xmlns="http://www.w3.org/2000/svg" xmlns:xlink="http://www.w3.org/1999/xlink">
    <!-- Generator: Sketch 49.3 (51167) - http://www.bohemiancoding.com/sketch -->
    <title>icon/40/权限审批</title>
    <desc>Created with Sketch.</desc>
    <defs>
        <linearGradient x1="100%" y1="100%" x2="0.82640896%" y2="0.82640896%" id="linearGradient-1">
            <stop stop-color="#FFC526" offset="0%"></stop>
            <stop stop-color="#FFAA00" offset="100%"></stop>
        </linearGradient>
        <linearGradient x1="50%" y1="0%" x2="50%" y2="99.044881%" id="linearGradient-2">
            <stop stop-color="#FFFFFF" stop-opacity="0.95" offset="0%"></stop>
            <stop stop-color="#FFFFFF" stop-opacity="0.8" offset="100%"></stop>
        </linearGradient>
    </defs>
    <g id="icon/40/权限审批" stroke="none" stroke-width="1" fill="none" fill-rule="evenodd">
        <path d="M6.13387011,8.50029599 C6.04871252,8.35311446 6,8.18222401 6,8 L6,6 C6,3.791 7.791,2 10,2 L30,2 C32.209,2 34,3.791 34,6 L34,8 C34,8.1820166 33.9513983,8.35272543 33.8664205,8.49979332 C33.9516204,8.64693207 34.0004,8.81775411 34.0004,8.9999 L34.0004,29.6789 C34.0004,31.1139 33.2304,32.4399 31.9844,33.1519 L20.4964,39.7159 C20.1884,39.8919 19.8114,39.8919 19.5044,39.7159 L8.0154,33.1519 C6.7694,32.4399 6.0004,31.1139 6.0004,29.6789 L6.0004,8.9999 C6.0004,8.81796149 6.04895999,8.64732106 6.13387011,8.50029599 Z" id="Combined-Shape" fill="url(#linearGradient-1)"></path>
        <rect id="Rectangle" fill="url(#linearGradient-2)" x="6" y="9" width="28" height="3"></rect>
        <path d="M33,32.3042 C32.435,32.0462 31.645,31.8812 30.754,31.8812 C29.602,31.8812 28.606,32.1532 28.065,32.5542 C27.525,32.9532 26.529,33.2252 25.377,33.2252 C24.225,33.2252 23.229,32.9532 22.688,32.5542 C22.147,32.1532 21.152,31.8812 20,31.8812 C18.848,31.8812 17.853,32.1532 17.312,32.5542 C16.771,32.9532 15.775,33.2252 14.623,33.2252 C13.471,33.2252 12.475,32.9532 11.935,32.5542 C11.394,32.1532 10.398,31.8812 9.246,31.8812 C8.355,31.8812 7.565,32.0462 7,32.3042 L7,32.3112 C7.288,32.6392 7.625,32.9292 8.016,33.1522 L19.504,39.7162 C19.812,39.8922 20.188,39.8922 20.496,39.7162 L31.984,33.1522 C32.375,32.9292 32.712,32.6392 33,32.3112 L33,32.3042 Z" id="Fill-7" fill="#FFD633"></path>
    </g>
</svg>