<?xml version="1.0" encoding="UTF-8"?>
<svg width="44px" height="44px" viewBox="0 0 44 44" version="1.1" xmlns="http://www.w3.org/2000/svg" xmlns:xlink="http://www.w3.org/1999/xlink">
    <!-- Generator: Sketch 49.1 (51147) - http://www.bohemiancoding.com/sketch -->
    <title>icon/44/error</title>
    <desc>Created with Sketch.</desc>
    <defs></defs>
    <g id="icon/44/error" stroke="none" stroke-width="1" fill="none" fill-rule="evenodd">
        <path d="M44,22 C44,34.15 34.15,44 22,44 C9.85,44 0,34.15 0,22 C0,9.85 9.85,0 22,0 C34.15,0 44,9.85 44,22" id="Fill-3" fill="#FF644C"></path>
        <path d="M30.4614,31.9619 C30.0774,31.9619 29.6934,31.8159 29.4004,31.5229 L12.4784,14.5989 C11.8924,14.0129 11.8924,13.0639 12.4784,12.4779 C13.0644,11.8919 14.0134,11.8919 14.5994,12.4779 L31.5224,29.4009 C32.1074,29.9869 32.1074,30.9369 31.5224,31.5229 C31.2294,31.8159 30.8454,31.9619 30.4614,31.9619" id="Fill-5" fill="#FFFFFF"></path>
        <path d="M13.5386,31.9619 C13.1546,31.9619 12.7706,31.8159 12.4776,31.5229 C11.8926,30.9369 11.8926,29.9869 12.4776,29.4009 L29.4006,12.4779 C29.9866,11.8919 30.9356,11.8919 31.5216,12.4779 C32.1076,13.0639 32.1076,14.0129 31.5216,14.5989 L14.5996,31.5229 C14.3066,31.8159 13.9226,31.9619 13.5386,31.9619" id="Fill-7" fill="#FFFFFF"></path>
    </g>
</svg>