<?xml version="1.0" encoding="UTF-8"?>
<svg width="40px" height="40px" viewBox="0 0 40 40" version="1.1" xmlns="http://www.w3.org/2000/svg" xmlns:xlink="http://www.w3.org/1999/xlink">
    <!-- Generator: Sketch 49.3 (51167) - http://www.bohemiancoding.com/sketch -->
    <title>icon/40/合同管理 </title>
    <desc>Created with Sketch.</desc>
    <defs>
        <linearGradient x1="100%" y1="100%" x2="-1.11022302e-14%" y2="1.72254642e-14%" id="linearGradient-1">
            <stop stop-color="#FF9F75" offset="0%"></stop>
            <stop stop-color="#FF8059" offset="100%"></stop>
        </linearGradient>
        <linearGradient x1="50%" y1="0%" x2="50%" y2="99.044881%" id="linearGradient-2">
            <stop stop-color="#FFFFFF" stop-opacity="0.95" offset="0%"></stop>
            <stop stop-color="#FFFFFF" stop-opacity="0.8" offset="100%"></stop>
        </linearGradient>
    </defs>
    <g id="icon/40/合同管理-" stroke="none" stroke-width="1" fill="none" fill-rule="evenodd">
        <path d="M32,37 L8,37 C5.791,37 4,35.209 4,33 L4,7 C4,4.791 5.791,3 8,3 L32,3 C34.209,3 36,4.791 36,7 L36,33 C36,35.209 34.209,37 32,37" id="Fill-3" fill="url(#linearGradient-1)"></path>
        <path d="M29.5,13.5 L10.5,13.5 C9.672,13.5 9,12.829 9,12 C9,11.171 9.672,10.5 10.5,10.5 L29.5,10.5 C30.328,10.5 31,11.171 31,12 C31,12.829 30.328,13.5 29.5,13.5 Z M19.5,21.5 L10.5,21.5 C9.672,21.5 9,20.829 9,20 C9,19.171 9.672,18.5 10.5,18.5 L19.5,18.5 C20.328,18.5 21,19.171 21,20 C21,20.829 20.328,21.5 19.5,21.5 Z M15.5,29.5 L10.5,29.5 C9.672,29.5 9,28.829 9,28 C9,27.171 9.672,26.5 10.5,26.5 L15.5,26.5 C16.328,26.5 17,27.171 17,28 C17,28.829 16.328,29.5 15.5,29.5 Z" id="Combined-Shape" fill="url(#linearGradient-2)"></path>
        <path d="M40,30 C40,35.523 35.522,40 30,40 C24.478,40 20,35.523 20,30 C20,24.477 24.478,20 30,20 C35.522,20 40,24.477 40,30" id="Fill-11" fill="#FFBE8C"></path>
        <path d="M30.3955,24.2363 L32.0765,27.1223 C32.1405,27.2333 32.2495,27.3113 32.3745,27.3393 L35.6385,28.0463 C35.9815,28.1203 36.1175,28.5363 35.8825,28.7983 L33.6585,31.2883 C33.5725,31.3843 33.5315,31.5113 33.5435,31.6393 L33.8805,34.9623 C33.9165,35.3113 33.5615,35.5683 33.2405,35.4263 L30.1845,34.0803 C30.0675,34.0283 29.9325,34.0283 29.8155,34.0803 L26.7595,35.4263 C26.4385,35.5683 26.0835,35.3113 26.1195,34.9623 L26.4565,31.6393 C26.4685,31.5113 26.4275,31.3843 26.3415,31.2883 L24.1175,28.7983 C23.8825,28.5363 24.0185,28.1203 24.3615,28.0463 L27.6245,27.3393 C27.7505,27.3113 27.8595,27.2333 27.9235,27.1223 L29.6045,24.2363 C29.7815,23.9333 30.2185,23.9333 30.3955,24.2363" id="Fill-13" fill="url(#linearGradient-2)"></path>
    </g>
</svg>