<?xml version="1.0" encoding="UTF-8"?>
<svg width="36px" height="36px" viewBox="0 0 36 36" version="1.1" xmlns="http://www.w3.org/2000/svg" xmlns:xlink="http://www.w3.org/1999/xlink">
    <!-- Generator: Sketch 49.3 (51167) - http://www.bohemiancoding.com/sketch -->
    <title>icon/36/日历</title>
    <desc>Created with Sketch.</desc>
    <defs></defs>
    <g id="icon/36/日历" stroke="none" stroke-width="1" fill="none" fill-rule="evenodd">
        <path d="M17,22.5 C16.616,22.5 16.232,22.354 15.939,22.061 L12.439,18.561 C11.854,17.975 11.854,17.025 12.439,16.439 C13.025,15.854 13.975,15.854 14.561,16.439 L17,18.879 L21.439,14.439 C22.025,13.854 22.975,13.854 23.561,14.439 C24.146,15.025 24.146,15.975 23.561,16.561 L18.061,22.061 C17.768,22.354 17.384,22.5 17,22.5" id="Fill-3" fill="#FFFFFF"></path>
        <path d="M7.5,7 C6.673,7 6,7.673 6,8.5 L6,27.5 C6,28.327 6.673,29 7.5,29 L28.5,29 C29.327,29 30,28.327 30,27.5 L30,8.5 C30,7.673 29.327,7 28.5,7 L7.5,7 Z M28.5,32 L7.5,32 C5.019,32 3,29.981 3,27.5 L3,8.5 C3,6.019 5.019,4 7.5,4 L28.5,4 C30.981,4 33,6.019 33,8.5 L33,27.5 C33,29.981 30.981,32 28.5,32 Z" id="Fill-5" fill="#FFFFFF"></path>
        <path d="M23.5,9 C22.671,9 22,8.328 22,7.5 L22,3.5 C22,2.672 22.671,2 23.5,2 C24.329,2 25,2.672 25,3.5 L25,7.5 C25,8.328 24.329,9 23.5,9" id="Fill-7" fill="#FFFFFF"></path>
        <path d="M12.5,9 C11.671,9 11,8.328 11,7.5 L11,3.5 C11,2.672 11.671,2 12.5,2 C13.329,2 14,2.672 14,3.5 L14,7.5 C14,8.328 13.329,9 12.5,9" id="Fill-9" fill="#FFFFFF"></path>
    </g>
</svg>