<?xml version="1.0" encoding="UTF-8"?>
<svg width="400px" height="400px" viewBox="0 0 400 400" version="1.1" xmlns="http://www.w3.org/2000/svg" xmlns:xlink="http://www.w3.org/1999/xlink">
    <!-- Generator: Sketch 49 (51002) - http://www.bohemiancoding.com/sketch -->
    <title>icon/400/无数据@1x</title>
    <desc>Created with Sketch.</desc>
    <defs></defs>
    <g id="icon/400/无数据" stroke="none" stroke-width="1" fill="none" fill-rule="evenodd">
        <g id="Group">
            <rect id="Rectangle-2" x="0" y="0" width="400" height="400"></rect>
            <path d="M243.75,335 L237.5,335 L237.5,328.75 C237.5,326.68 235.82,325 233.75,325 C231.6775,325 230,326.68 230,328.75 L230,335 L223.75,335 C221.6775,335 220,336.68 220,338.75 C220,340.82 221.6775,342.5 223.75,342.5 L230,342.5 L230,348.75 C230,350.82 231.6775,352.5 233.75,352.5 C235.82,352.5 237.5,350.82 237.5,348.75 L237.5,342.5 L243.75,342.5 C245.8225,342.5 247.5,340.82 247.5,338.75 C247.5,336.68 245.8225,335 243.75,335 M328.75,92.5 L322.5,92.5 L322.5,86.25 C322.5,84.1775 320.82,82.5 318.75,82.5 C316.6775,82.5 315,84.1775 315,86.25 L315,92.5 L308.75,92.5 C306.6775,92.5 305,94.1775 305,96.25 C305,98.32 306.6775,100 308.75,100 L315,100 L315,106.25 C315,108.32 316.6775,110 318.75,110 C320.82,110 322.5,108.32 322.5,106.25 L322.5,100 L328.75,100 C330.82,100 332.5,98.32 332.5,96.25 C332.5,94.1775 330.82,92.5 328.75,92.5 M317.5,195 C306.575,195.9875 304.285,204.285 295,200 C285.715,195.715 308.9275,169.6425 312.5,152.5 C316.0725,135.3575 306.0725,122.8575 277.5,125 C248.9275,127.1425 228.215,149.285 215,157.5 C201.785,165.715 186.785,174.285 180,165 C173.215,155.715 199.54,142.39 207.5,135 C217.5,125.715 221.3425,109.04 202.5,95 C184.285,81.4275 147.8575,92.8575 125,110 C108.9775,122.0175 84.6425,157.5 77.5,177.5 C70.3575,197.5 68.215,213.215 80,220 C91.785,226.785 122.1425,213.9275 132.5,212.5 C142.8575,211.0725 145.3575,220.715 142.5,230 C139.6425,239.285 127.0825,251.7175 117.5,272.5 C92.1425,327.5 148.215,326.0725 170,307.5 C184.85,294.84 208.215,274.6425 222.5,272.5 C236.785,270.3575 234.6425,283.2125 237.5,297.5 C240.3575,311.785 255.715,308.5725 270,297.5 C284.285,286.4275 306.4275,262.1425 320,235 C333.5725,207.8575 325.8025,194.2475 317.5,195 M75,295 C73.62,295 72.5,293.88 72.5,292.5 C72.5,291.1175 73.62,290 75,290 C76.38,290 77.5,291.1175 77.5,292.5 C77.5,293.88 76.38,295 75,295 M75,282.5 C69.4775,282.5 65,286.9775 65,292.5 C65,298.0225 69.4775,302.5 75,302.5 C80.5225,302.5 85,298.0225 85,292.5 C85,286.9775 80.5225,282.5 75,282.5 M122.5,42.5 C125.26,42.5 127.5,44.7375 127.5,47.5 C127.5,50.26 125.26,52.5 122.5,52.5 C119.74,52.5 117.5,50.26 117.5,47.5 C117.5,44.7375 119.74,42.5 122.5,42.5 M122.5,60 C129.4025,60 135,54.4025 135,47.5 C135,40.595 129.4025,35 122.5,35 C115.595,35 110,40.595 110,47.5 C110,54.4025 115.595,60 122.5,60 M370,235 C368.62,235 367.5,233.88 367.5,232.5 C367.5,231.1175 368.62,230 370,230 C371.38,230 372.5,231.1175 372.5,232.5 C372.5,233.88 371.38,235 370,235 M370,222.5 C364.4775,222.5 360,226.9775 360,232.5 C360,238.0225 364.4775,242.5 370,242.5 C375.5225,242.5 380,238.0225 380,232.5 C380,226.9775 375.5225,222.5 370,222.5 M28.75,182.5 L22.5,182.5 L22.5,176.25 C22.5,174.1775 20.8225,172.5 18.75,172.5 C16.6775,172.5 15,174.1775 15,176.25 L15,182.5 L8.75,182.5 C6.6775,182.5 5,184.1775 5,186.25 C5,188.32 6.6775,190 8.75,190 L15,190 L15,196.25 C15,198.32 16.6775,200 18.75,200 C20.8225,200 22.5,198.32 22.5,196.25 L22.5,190 L28.75,190 C30.82,190 32.5,188.32 32.5,186.25 C32.5,184.1775 30.82,182.5 28.75,182.5" id="Fill-1" fill="#FFF8EB"></path>
        </g>
        <g id="Page-1" transform="translate(120.000000, 120.000000)">
            <polygon id="Fill-1" points="0 160 160 160 160 0 0 0"></polygon>
            <g id="Group-25" transform="translate(12.000000, 11.000000)">
                <path d="M34.25,6.5 C34.25,9.952 31.452,12.75 28,12.75 C24.548,12.75 21.75,9.952 21.75,6.5 C21.75,3.048 24.548,0.25 28,0.25 C31.452,0.25 34.25,3.048 34.25,6.5" id="Fill-3" fill="#FFFFFF"></path>
                <path d="M34.25,6.5 C34.25,9.952 31.452,12.75 28,12.75 C24.548,12.75 21.75,9.952 21.75,6.5 C21.75,3.048 24.548,0.25 28,0.25 C31.452,0.25 34.25,3.048 34.25,6.5 Z" id="Stroke-5" stroke="#B3A8A1" stroke-width="5" stroke-linecap="round" stroke-linejoin="round"></path>
                <path d="M126.75,94 C126.75,96.071 125.071,97.75 123,97.75 C120.929,97.75 119.25,96.071 119.25,94 C119.25,91.929 120.929,90.25 123,90.25 C125.071,90.25 126.75,91.929 126.75,94" id="Fill-7" fill="#FFFFFF"></path>
                <path d="M126.75,94 C126.75,96.071 125.071,97.75 123,97.75 C120.929,97.75 119.25,96.071 119.25,94 C119.25,91.929 120.929,90.25 123,90.25 C125.071,90.25 126.75,91.929 126.75,94 Z" id="Stroke-9" stroke="#B3A8A1" stroke-width="5" stroke-linecap="round" stroke-linejoin="round"></path>
                <path d="M0.5,9 C0.5,9.423 0.514,9.838 0.539,10.245" id="Stroke-11" stroke="#B3A8A1" stroke-width="5" stroke-linecap="round" stroke-linejoin="round"></path>
                <path d="M5.9063,21.0698 C16.2103,30.0228 40.1333,30.9998 68.0003,30.9998 C105.2793,30.9998 135.5003,32.7498 135.5003,52.9998 C135.5003,73.2508 105.2793,74.9998 68.0003,74.9998 C30.7203,74.9998 0.5003,76.7498 0.5003,96.9998 C0.5003,115.8788 26.7653,118.6778 60.5293,118.9708" id="Stroke-13" stroke="#B3A8A1" stroke-width="5" stroke-linecap="round" stroke-linejoin="round" stroke-dasharray="2.485,12.424"></path>
                <path d="M66.749,118.9995 C67.165,118.9995 67.582,118.9995 68,118.9995" id="Stroke-15" stroke="#B3A8A1" stroke-width="5" stroke-linecap="round" stroke-linejoin="round"></path>
                <polygon id="Fill-17" fill="#FFFFFF" points="88 96.5 94.364 112.636 110.5 119 94.364 125.364 88 141.5 81.636 125.364 65.5 119 81.636 112.636"></polygon>
                <polygon id="Stroke-19" stroke="#FFAA00" stroke-width="5" stroke-linecap="round" stroke-linejoin="round" points="88 96.5 94.364 112.636 110.5 119 94.364 125.364 88 141.5 81.636 125.364 65.5 119 81.636 112.636"></polygon>
                <path d="M48.5303,75.9287 C48.5303,81.4517 44.0523,85.9287 38.5303,85.9287 C33.0083,85.9287 28.5303,81.4517 28.5303,75.9287 C28.5303,70.4067 33.0083,65.9287 38.5303,65.9287 C44.0523,65.9287 48.5303,70.4067 48.5303,75.9287" id="Fill-21" fill="#FFFFFF"></path>
                <path d="M48.5303,75.9287 C48.5303,81.4517 44.0523,85.9287 38.5303,85.9287 C33.0083,85.9287 28.5303,81.4517 28.5303,75.9287 C28.5303,70.4067 33.0083,65.9287 38.5303,65.9287 C44.0523,65.9287 48.5303,70.4067 48.5303,75.9287 Z" id="Stroke-23" stroke="#B3A8A1" stroke-width="5" stroke-linecap="round" stroke-linejoin="round"></path>
            </g>
        </g>
    </g>
</svg>