<?xml version="1.0" encoding="UTF-8"?>
<svg width="44px" height="44px" viewBox="0 0 44 44" version="1.1" xmlns="http://www.w3.org/2000/svg" xmlns:xlink="http://www.w3.org/1999/xlink">
    <!-- Generator: Sketch 49.3 (51167) - http://www.bohemiancoding.com/sketch -->
    <title>icon/44+#000/在家办公</title>
    <desc>Created with Sketch.</desc>
    <defs>
        <linearGradient x1="100%" y1="100%" x2="0.82640896%" y2="0.82640896%" id="linearGradient-1">
            <stop stop-color="#FFC526" offset="0%"></stop>
            <stop stop-color="#FFAA00" offset="100%"></stop>
        </linearGradient>
    </defs>
    <g id="icon/44+#000/在家办公" stroke="none" stroke-width="1" fill="none" fill-rule="evenodd">
        <path d="M14,11 L14,10.5 C14,7.467 16.467,5 19.5,5 L25.5,5 C28.533,5 31,7.467 31,10.5 L31,11 L35,11 C37.209,11 39,12.791 39,15 L39,17.5 C39,19.981 36.981,22 34.5,22 L9.5,22 C7.019,22 5,19.981 5,17.5 L5,15 C5,12.791 6.791,11 9,11 L14,11 Z M17,11 L28,11 L28,10.5 C28,9.121 26.878,8 25.5,8 L19.5,8 C18.122,8 17,9.121 17,10.5 L17,11 Z M34.5,24.872 C35.764,24.872 36.954,24.555 38,24 L38,32.872 C38,35.081 36.209,36.872 34,36.872 L10,36.872 C7.791,36.872 6,35.081 6,32.872 L6,24 C7.046,24.555 8.236,24.872 9.5,24.872 L34.5,24.872 Z" id="Combined-Shape" fill="url(#linearGradient-1)"></path>
    </g>
</svg>