<?xml version="1.0" encoding="UTF-8"?>
<svg width="44px" height="44px" viewBox="0 0 44 44" version="1.1" xmlns="http://www.w3.org/2000/svg" xmlns:xlink="http://www.w3.org/1999/xlink">
    <!-- Generator: Sketch 48.2 (47327) - http://www.bohemiancoding.com/sketch -->
    <title>icon/44+渐变/我的 tap</title>
    <desc>Created with Sketch.</desc>
    <defs>
        <linearGradient x1="50.6267937%" y1="99.3732063%" x2="50.6267937%" y2="0.626793686%" id="linearGradient-1">
            <stop stop-color="#FFBB00" offset="0%"></stop>
            <stop stop-color="#FF9900" offset="100%"></stop>
        </linearGradient>
    </defs>
    <g id="Symbols" stroke="none" stroke-width="1" fill="none" fill-rule="evenodd">
        <g id="icon/44+渐变/我的-tap" fill="url(#linearGradient-1)">
            <path d="M30.7217,27.0181 C29.6337,28.8571 27.6327,30.0001 25.4997,30.0001 C24.2317,30.0001 23.0107,29.5961 21.9997,28.8821 C20.9897,29.5961 19.7687,30.0001 18.4997,30.0001 C16.3677,30.0001 14.3667,28.8571 13.2787,27.0181 C12.7157,26.0671 13.0317,24.8411 13.9817,24.2781 C14.9357,23.7171 16.1587,24.0321 16.7217,24.9821 C17.0987,25.6191 17.7637,26.0001 18.4997,26.0001 C19.2367,26.0001 19.9017,25.6191 20.2787,24.9821 C20.6387,24.3731 21.2927,24.0001 21.9997,24.0001 C22.7067,24.0001 23.3617,24.3731 23.7217,24.9821 C24.0987,25.6191 24.7637,26.0001 25.4997,26.0001 C26.2367,26.0001 26.9017,25.6191 27.2787,24.9821 C27.8417,24.0321 29.0657,23.7161 30.0187,24.2781 C30.9687,24.8411 31.2837,26.0671 30.7217,27.0181 M15.9997,16.0001 C17.1047,16.0001 17.9997,16.8951 17.9997,18.0001 C17.9997,19.1041 17.1047,20.0001 15.9997,20.0001 C14.8957,20.0001 13.9997,19.1041 13.9997,18.0001 C13.9997,16.8951 14.8957,16.0001 15.9997,16.0001 M27.9997,16.0001 C29.1047,16.0001 29.9997,16.8951 29.9997,18.0001 C29.9997,19.1041 29.1047,20.0001 27.9997,20.0001 C26.8957,20.0001 25.9997,19.1041 25.9997,18.0001 C25.9997,16.8951 26.8957,16.0001 27.9997,16.0001 M39.1037,38.3581 C37.5527,37.2801 35.9017,36.3531 34.1647,35.5871 C38.4557,32.0231 40.9997,26.7271 40.9997,21.0001 C40.9997,10.5231 32.4767,2.0001 21.9997,2.0001 C11.5237,2.0001 2.9997,10.5231 2.9997,21.0001 C2.9997,26.7271 5.5437,32.0231 9.8347,35.5871 C8.0987,36.3531 6.4477,37.2791 4.8967,38.3581 C4.1787,38.8571 3.8677,39.7641 4.1297,40.5981 C4.3907,41.4321 5.1637,42.0001 6.0377,42.0001 L37.9617,42.0001 C38.8357,42.0001 39.6097,41.4321 39.8697,40.5981 C40.1317,39.7641 39.8217,38.8571 39.1037,38.3581" id="Fill-3"></path>
        </g>
    </g>
</svg>