<?xml version="1.0" encoding="UTF-8"?>
<svg width="36px" height="36px" viewBox="0 0 36 36" version="1.1" xmlns="http://www.w3.org/2000/svg" xmlns:xlink="http://www.w3.org/1999/xlink">
    <!-- Generator: Sketch 48.2 (47327) - http://www.bohemiancoding.com/sketch -->
    <title>input/_resource/icon2</title>
    <desc>Created with Sketch.</desc>
    <defs></defs>
    <g id="Symbols" stroke="none" stroke-width="1" fill="none" fill-rule="evenodd">
        <g id="input/_resource/icon2" fill="#CCCCCC">
            <path d="M18,36 C8.0578125,36 0,27.9421875 0,18 C0,8.0578125 8.0578125,0 18,0 C27.9421875,0 36,8.0578125 36,18 C36,27.9421875 27.9421875,36 18,36 L18,36 Z M26.4726563,11.2746094 C26.915625,10.8386719 26.9226563,10.1285156 26.4902344,9.68203125 L26.4902344,9.68203125 C26.0542969,9.2390625 25.3441406,9.23203125 24.8976563,9.66445313 L18,16.425 L11.1023438,9.66796875 C10.659375,9.23203125 9.94570313,9.2390625 9.50976563,9.68554688 L9.50976563,9.68554688 C9.07382813,10.1285156 9.08085938,10.8421875 9.52734375,11.278125 L16.3933594,18 L9.52734375,24.7253906 C9.084375,25.1613281 9.07734375,25.8714844 9.50976563,26.3179688 L9.50976563,26.3179688 C9.94570313,26.7609375 10.6558594,26.7679688 11.1023438,26.3355469 L18,19.575 L24.8976563,26.3320313 C25.340625,26.7679688 26.0542969,26.7609375 26.4902344,26.3144531 L26.4902344,26.3144531 C26.9261719,25.8714844 26.9191406,25.1578125 26.4726563,24.721875 L19.6066406,18 L26.4726563,11.2746094 L26.4726563,11.2746094 Z" id="Shape" transform="translate(18.000000, 18.000000) scale(1, -1) translate(-18.000000, -18.000000) "></path>
        </g>
    </g>
</svg>