<?xml version="1.0" encoding="UTF-8"?>
<svg width="120px" height="120px" viewBox="0 0 120 120" version="1.1" xmlns="http://www.w3.org/2000/svg" xmlns:xlink="http://www.w3.org/1999/xlink">
    <!-- Generator: Sketch 48.2 (47327) - http://www.bohemiancoding.com/sketch -->
    <title>KM logo</title>
    <desc>Created with Sketch.</desc>
    <defs>
        <polygon id="path-1" points="0 0.38346 0 85.8 109.99934 85.8 109.99934 0.38346 0 0.38346"></polygon>
    </defs>
    <g id="Symbols" stroke="none" stroke-width="1" fill="none" fill-rule="evenodd">
        <g id="KM-logo">
            <g id="Page-1-Copy" transform="translate(5.000000, 16.000000)">
                <g id="Group-3" transform="translate(0.000000, 1.816760)">
                    <mask id="mask-2" fill="white">
                        <use xlink:href="#path-1"></use>
                    </mask>
                    <g id="Clip-2"></g>
                    <path d="M81.77994,83.91746 C81.77994,83.91746 64.03034,85.80066 54.91354,85.80066 C46.59534,85.80066 30.35934,84.21886 30.35934,84.21886 C21.92894,83.38286 14.34774,79.84526 8.32194,74.55206 C3.18054,69.89906 -0.00066,63.27926 -0.00066,55.91366 C-0.00066,54.16026 0.18634,52.45526 0.52734,50.80306 L4.61274,18.88766 L6.73574,2.33706 C6.73574,2.33706 6.97774,0.55726 8.74874,0.55726 C9.44614,0.55726 9.88394,0.96426 10.41414,1.45706 C22.12914,12.08966 37.67434,18.57526 54.73974,18.57526 C71.99654,18.57526 87.70234,11.94886 99.46134,1.10506 C99.46134,1.10506 100.03774,0.38346 101.07834,0.38346 C102.89334,0.38346 103.10014,2.32826 103.10014,2.32826 L105.31554,18.97346 C105.31554,18.9749267 106.703007,29.5847933 109.47794,50.80306 C109.81894,52.45306 109.99934,54.16026 109.99934,55.91366 C109.99934,64.35066 105.82594,71.81306 99.43054,76.34946 C94.36614,80.20826 88.34474,82.87466 81.77994,83.91746 Z" id="Fill-1" fill="#FFB21C" mask="url(#mask-2)"></path>
                </g>
                <path d="M108.2466,66.9449 C107.7582,66.8855 107.2632,66.8393 106.7682,66.8151 C103.2504,66.6589 99.4466,66.8261 99.8294,67.5785 C100.166,68.2429 103.4462,69.3759 106.0136,71.2899 C106.8936,69.9259 107.6416,68.4717 108.2466,66.9449" id="Fill-4" fill="#B04F08"></path>
                <path d="M108.41732,66.50226 C109.02232,64.88746 109.46452,63.19126 109.72412,61.43786 C109.25112,61.38066 108.77152,61.33666 108.29192,61.31686 C104.77632,61.15626 100.97032,61.32566 101.35312,62.07806 C101.73152,62.82166 105.79052,64.15486 108.41732,66.50226" id="Fill-6" fill="#B04F08"></path>
                <path d="M44.7689,19.63852 C45.2463,23.09912 46.1065,28.14812 47.0613,28.14812 C47.9655,28.14812 48.7883,23.58752 49.2767,20.16432 C47.7587,20.04112 46.2561,19.86512 44.7689,19.63852" id="Fill-8" fill="#B04F08"></path>
                <path d="M60.9455,20.1025 C61.4361,23.5323 62.2633,28.1479 63.1741,28.1479 C64.1377,28.1479 65.0089,22.9823 65.4841,19.5173 C63.9881,19.7637 62.4745,19.9595 60.9455,20.1025" id="Fill-10" fill="#B04F08"></path>
                <path d="M3.64562,66.73216 C3.00542,66.76076 2.36302,66.82896 1.74042,66.91696 C2.36962,68.51416 3.15722,70.02776 4.08562,71.44456 C6.69262,69.38756 10.23242,68.18416 10.58442,67.49556 C10.96722,66.74316 7.16122,66.57376 3.64562,66.73216" id="Fill-12" fill="#B04F08"></path>
                <path d="M57.6477,20.32602 C56.6841,20.37002 55.7161,20.39202 54.7393,20.39202 C54.0221,20.39202 53.3071,20.37662 52.5943,20.35462 C52.9727,24.04842 53.9803,32.71202 55.1199,32.71202 C56.2617,32.71202 57.2715,24.00662 57.6477,20.32602" id="Fill-14" fill="#B04F08"></path>
                <path d="M1.66584,66.72358 C1.73624,66.65538 1.80664,66.58718 1.87704,66.52338 C4.49944,64.10998 8.67504,62.74598 9.05784,61.99578 C9.44284,61.24118 5.63684,61.07398 2.12124,61.23238 C1.49864,61.26098 0.87604,61.32258 0.27104,61.40838 C0.54164,63.25418 1.01464,65.03178 1.66584,66.72358" id="Fill-16" fill="#B04F08"></path>
                <path d="M19.7439,15.50494 C19.7395,15.50274 19.7351,15.50274 19.7307,15.50054 C16.9389,14.28394 14.3891,12.61854 12.1803,10.58794 L12.1759,10.59014 C12.1121,10.53734 12.0461,10.49334 11.9691,10.45814 C11.5313,10.26454 11.0187,10.46474 10.8273,10.90034 C10.7789,11.01254 10.7569,11.12694 10.7547,11.24134 L9.5403,21.66494 C9.5117,21.95094 9.6547,22.23914 9.9253,22.37554 C10.1937,22.51414 10.5039,22.46354 10.7173,22.27654 L10.7217,22.27874 C13.2561,19.82134 16.3009,17.88754 19.6823,16.65554 L19.6845,16.65334 C19.8473,16.60274 19.9881,16.48614 20.0629,16.31674 C20.1993,16.00654 20.0563,15.64134 19.7439,15.50494" id="Fill-18" fill="#B04F08"></path>
                <path d="M100.6808,21.6645 L99.4664,11.2409 C99.4664,11.1265 99.4444,11.0121 99.396,10.8999 C99.2046,10.4643 98.692,10.2641 98.252,10.4577 C98.175,10.4929 98.109,10.5369 98.0474,10.5897 L98.043,10.5875 C95.832,12.6181 93.2844,14.2857 90.4926,15.5001 C90.4882,15.5023 90.4838,15.5023 90.4794,15.5045 C90.167,15.6431 90.024,16.0061 90.1604,16.3163 C90.233,16.4857 90.376,16.6023 90.5388,16.6551 L90.5388,16.6573 C93.9224,17.8871 96.9672,19.8209 99.4994,22.2783 L99.5038,22.2761 C99.7194,22.4631 100.0296,22.5137 100.2958,22.3751 C100.5664,22.2387 100.7116,21.9505 100.6808,21.6645" id="Fill-20" fill="#B04F08"></path>
                <path d="M79.83558,38.42432 C89.92038,38.42432 98.09558,46.57092 98.09558,56.62052 C98.09558,66.67012 89.92038,74.81672 79.83558,74.81672 C69.75078,74.81672 61.57558,66.67012 61.57558,56.62052 C61.57558,46.57092 69.75078,38.42432 79.83558,38.42432" id="Fill-22" fill="#FFFFFF"></path>
                <path d="M82.07958,38.55984 C81.34478,38.47184 80.59458,38.42344 79.83558,38.42344 C78.88298,38.42344 77.94798,38.49824 77.03498,38.63684 C76.51138,40.52224 76.09778,42.98184 75.84038,45.79784 C75.85138,45.80004 75.86458,45.80004 75.87778,45.80224 C77.74778,46.06844 79.17118,47.13104 79.17118,47.77124 C79.17118,48.42024 77.80058,49.66984 75.59178,49.79524 C75.56098,50.68184 75.54338,51.58604 75.54338,52.50784 C75.54338,62.36824 77.34518,70.36084 79.56718,70.36084 C81.78918,70.36084 83.59098,62.36824 83.59098,52.50784 C83.59098,46.86264 83.00138,41.83124 82.07958,38.55984" id="Fill-24" fill="#672D06"></path>
                <path d="M30.21216,38.37284 C40.29696,38.37284 48.47216,46.51944 48.47216,56.56904 C48.47216,66.61864 40.29696,74.76524 30.21216,74.76524 C20.12736,74.76524 11.95216,66.61864 11.95216,56.56904 C11.95216,46.51944 20.12736,38.37284 30.21216,38.37284" id="Fill-26" fill="#FFFFFF"></path>
                <path d="M32.45616,38.50814 C31.72136,38.42014 30.97116,38.37174 30.21216,38.37174 C29.25956,38.37174 28.32456,38.44654 27.41156,38.58514 C26.88796,40.47054 26.47436,42.93234 26.21696,45.74614 C26.22796,45.74834 26.24116,45.74834 26.25216,45.75054 C28.12216,46.01674 29.54556,47.07934 29.54556,47.71954 C29.54556,48.36854 28.17716,49.61814 25.96836,49.74574 C25.93976,50.63014 25.91996,51.53434 25.91996,52.45834 C25.91996,62.31654 27.72176,70.30914 29.94376,70.30914 C32.16796,70.30914 33.96756,62.31654 33.96756,52.45834 C33.96756,46.81094 33.37796,41.77954 32.45616,38.50814" id="Fill-28" fill="#672D06"></path>
                <path d="M62.10248,70.21058 C62.10248,69.82778 61.79228,69.51758 61.40948,69.51758 C61.02668,69.51758 60.71648,69.82778 60.71648,70.21058 L60.71208,70.21058 C60.71428,70.23918 60.71648,70.26558 60.71648,70.29638 C60.71648,71.68458 59.59228,72.80878 58.20628,72.80878 C56.92148,72.80878 55.86328,71.84298 55.71368,70.59998 L55.71368,69.66058 C55.80828,69.60558 55.90068,69.53518 55.98428,69.45378 L57.95108,67.50678 C58.49228,66.96998 58.49228,66.09878 57.95108,65.56198 L52.05068,65.56198 C51.50728,66.09878 51.50728,66.96998 52.05068,67.50678 L54.01748,69.45378 C54.10328,69.53958 54.19788,69.61218 54.29908,69.66938 L54.29908,70.44158 C54.22428,71.76158 53.13308,72.80878 51.79548,72.80878 C50.40948,72.80878 49.28308,71.68458 49.28308,70.29638 C49.28308,70.26558 49.28748,70.23918 49.28748,70.21058 L49.28308,70.21058 C49.28308,69.82778 48.97288,69.51758 48.59008,69.51758 C48.20728,69.51758 47.89708,69.82778 47.89708,70.21058 C47.89708,70.21938 47.89928,70.23038 47.89928,70.23918 C47.89928,70.25678 47.89708,70.27658 47.89708,70.29638 C47.89708,72.45018 49.64168,74.19698 51.79548,74.19698 C53.12428,74.19698 54.29688,73.53038 54.99868,72.51398 C55.70268,73.53038 56.87748,74.19698 58.20628,74.19698 C60.35788,74.19698 62.10248,72.45018 62.10248,70.29638 C62.10248,70.27658 62.10028,70.25678 62.10028,70.23918 C62.10028,70.23038 62.10248,70.21938 62.10248,70.21058" id="Fill-30" fill="#B04F08"></path>
            </g>
        </g>
    </g>
</svg>